<svg width="512" height="512" xmlns="http://www.w3.org/2000/svg">

 <g>
  <title>background</title>
  <rect fill="none" id="canvas_background" height="402" width="582" y="-1" x="-1"/>
 </g>
 <g>
  <title>Layer 1</title>
  <path id="svg_1" fill-rule="evenodd" clip-rule="evenodd" fill="#000000" d="m434.478,13.931035l-356.956,0c-33.804,0 -61.522,27.721 -61.522,61.521l0,356.957c0,33.8 27.718,61.522 61.522,61.522l356.955,0c33.808,0 61.523,-27.722 61.523,-61.521l0,-356.958c0,-33.8 -27.715,-61.521 -61.522,-61.521zm-253.478,231.812l0,148.188l-65,0l0,-137.132l0,-49.868l65,0l0,38.812zm-32.63,-66.684c-18.083,0 -32.756,-14.662 -32.756,-32.756c0,-18.097 14.673,-32.741 32.756,-32.741c18.108,0 31.38769,13.95734 32.767,32.741c1.37931,18.78366 -14.658,32.756 -32.767,32.756zm247.63,112.872l0,102l-56,0l0,-90.833c0,-21.75 -2.355,-49.724 -32.164,-49.724c-30.262,0 -34.836,23.679 -34.836,48.156l0,92.401l-54,0l0,-150.88l0,-36.12l52,0l0,25l0.554,0c7.756,-14 26.757,-25.02 55.051,-25.02c47.672,0 63.872,22.543 68.305,57.812c1.052,8.277 1.458,17.208 1.458,27.208l-0.368,0z"/>
 </g>
</svg>